<svg version="1.1" viewBox="0 0 2048 1638" width="100" height="100" xmlns="http://www.w3.org/2000/svg">
<path transform="translate(865,516)" d="m0 0 8 3 20 14 13 10 28 22 17 14 10 8 22 18 17 14 13 11 10 8 13 11 14 11 14 12 33 27 32 26 13 10 21 16 17 12 19 14-6-9-14-18v-2l40-15 40-14 38-12 33-9 33-7 14-2 13-1h10l17 2 25 6 8 3-2 2-21 7-16 8-7 5-2 5 1 6 5 2 81-15h7l16 10 11 9 12 12 5 8 1 3v9l-5 9-9 8-13 8-25 12-30 11-40 13-53 15-69 18-45 11-64 12-92 16-25 4-23 2h-50l-30-3-35-6-40-9-34-10-27-10-29-14-5-4 24-7 226-62 8-1 18 20 46 46 8 7 4 3-13-16-7-9-13-16-8-10-13-16-9-11-13-16-18-22-13-16-1-3-26 12-20 9-3 1h-8l-9-4-5-6-3-9 1-9 4-6 7-6 30-14 3-2-14-17-8-10-13-16-11-14-13-16-10-13-12-15-10-13-16-21-13-18-10-16-1-4z" fill="#2A3D90"/>
<path transform="translate(515,726)" d="m0 0h16l18 3 27 9 25 12 27 16 21 14 20 14 38 28 21 16 19 14 18 13 17 12 16 10 16 8 19 8 24 8 28 7 35 6 39 4 17 1h69l-2 2-25 8-44 11-52 11-76 14-90 15-99 15-42 6h-17l-10-4-8-7-6-8-3-10v-12l4-11 8-11 7-6 12-5 26-9 14-7 4-7 1-10-2-10-5-13-8-15-8-12-14-19-12-14-9-11-16-17-14-15-27-27-8-7-7-7-8-7-1-3z" fill="#357CBA"/>
<path transform="translate(1019,401)" d="m0 0h43l25 2 33 5 27 6 27 8 29 11 28 13 22 12 22 14 19 14 14 11 10 9 8 7 26 26 9 11 11 13 13 18 13 20 12 21 13 26 9 23-9-1-13-2-29-1-8-16-12-22-12-19-14-19-9-11-12-14-23-23-11-9-12-10-18-13-19-12-18-10-27-13-27-10-27-8-29-6-21-3-28-2h-29l-34 3-29 5-24 6-33 11-25 11-27 14-22 14-19 14-11 9-14 12-22 22-9 11-11 13-13 18-13 21-13 24-11 25-9 25-7 25-6 29-2 10-11-7-23-15-7-4 1-10 6-25 8-26 10-26 12-26 12-22 15-24 12-16 10-13 12-14 12-13 18-18 8-7 17-14 19-14 17-11 17-10 23-12 17-8 26-10 25-8 29-7 30-5 18-2z" fill="#357CBA"/>
<path transform="translate(1456,841)" d="m0 0h2v11l-3 27-5 28-7 28-12 36-11 25-13 26-12 20-10 15-14 19-11 13-9 11-31 31-11 9-12 10-19 14-22 14-18 10-19 10-31 13-30 10-28 7-27 5-26 3-14 1h-45l-33-3-29-5-25-6-20-6-23-8-23-10-16-8-19-10-19-12-16-11-13-10-11-9-10-9-8-7-23-23-9-11-11-13-14-19-11-17-9-15 1-2 40-6h8l13 19 13 17 12 14 11 12 14 14 8 7 17 14 18 13 21 13 22 12 19 9 29 11 24 7 27 6 27 4 28 2h25l28-2 28-4 27-6 29-9 25-10 25-12 18-10 24-16 17-13 13-11 12-11 17-17 7-8 13-16 13-18 13-21 12-22 11-24 10-28 7-24 5-24 4-29 6-3 33-10z" fill="#2A3D90"/>
<path transform="translate(1227,446)" d="m0 0 6 1 23 13 19 12 19 14 14 11 10 9 8 7 26 26 9 11 11 13 13 18 13 20 12 21 13 26 9 23-9-1-13-2-29-1-8-16-12-22-12-19-14-19-9-11-12-14-23-23-11-9-12-10-18-13-19-12-10-6-1-2 6 2 2-2v-41z" fill="#2A3D91"/>
<path transform="translate(800,890)" d="m0 0 5 1 20 9 25 9 26 7 31 6 30 4 39 3h69l-2 2-25 8-44 11-52 11-76 14-59 10h-11l4-19 3-9 3-15 4-14 2-2 2-11 2-5 2-9z" fill="#2A3D91"/>
<path transform="translate(1336,781)" d="m0 0 2 2 2 12-8 3h-3l-3-13 2-2z" fill="#FEFEFE"/>
<path transform="translate(1414,761)" d="m0 0h4l2 10v4l-6 2h-5l-2-10v-4z" fill="#FEFEFE"/>
<path transform="translate(1234,807)" d="m0 0 3 1 2 13-9 3h-2l-2-10 1-5z" fill="#FEFEFE"/>
<path transform="translate(1375,771)" d="m0 0 3 1 2 13-11 3-2-10v-5z" fill="#FEFEFE"/>
<path transform="translate(1395,766)" d="m0 0h3l2 14-6 2h-5l-2-9v-5z" fill="#FEFEFE"/>
<path transform="translate(1457,750)" d="m0 0 2 4 1 11-10 2-2-7-1-7z" fill="#FEFEFE"/>
<path transform="translate(1254,802)" d="m0 0h3l2 14-6 2h-5l-2-10v-4z" fill="#FEFEFE"/>
<path transform="translate(1274,797)" d="m0 0h3l2 10v4l-6 2h-5l-2-14z" fill="#FEFEFE"/>
<path transform="translate(1293,792)" d="m0 0h4l2 9v5l-7 2h-4l-2-14z" fill="#FEFEFE"/>
<path transform="translate(1313,787)" d="m0 0h4l2 8v6l-10 2-2-7-1-7z" fill="#FEFEFE"/>
<path transform="translate(1356,776)" d="m0 0 2 1 2 13-9 3h-2l-2-9v-5z" fill="#FEFEFE"/>
<path transform="translate(1434,756)" d="m0 0h4l2 9v5l-7 2h-4l-2-14z" fill="#FEFEFE"/>
</svg>